<?xml version="1.0" standalone="no"?>
<!DOCTYPE svg PUBLIC "-//W3C//DTD SVG 20010904//EN"
 "http://www.w3.org/TR/2001/REC-SVG-20010904/DTD/svg10.dtd">
<svg version="1.0" xmlns="http://www.w3.org/2000/svg"
 width="16.000000pt" height="16.000000pt" viewBox="0 0 16.000000 16.000000"
 preserveAspectRatio="xMidYMid meet">
<metadata>
Created by potrace 1.11, written by Peter Selinger 2001-2013
</metadata>
<g transform="translate(0.000000,16.000000) scale(0.006250,-0.006250)"
fill="#000000" stroke="none">
<path d="M911 2524 c-19 -19 -52 -39 -74 -45 -44 -12 -82 -42 -73 -57 3 -6 -7
-20 -24 -32 -16 -12 -30 -30 -30 -40 0 -11 -9 -24 -19 -29 -20 -11 -54 -76
-65 -123 -5 -20 -1 -30 14 -41 19 -13 19 -15 4 -27 -20 -17 -52 -79 -59 -116
-2 -16 -10 -101 -15 -189 -9 -136 -8 -168 5 -210 18 -61 18 -58 0 -51 -24 9
-64 -11 -76 -38 -9 -18 -7 -39 5 -88 9 -35 16 -80 16 -99 1 -79 90 -200 162
-220 22 -6 46 -8 53 -5 7 2 18 -1 24 -7 14 -14 15 -57 1 -57 -25 0 -300 -144
-345 -181 -27 -22 -79 -60 -115 -85 -81 -55 -175 -165 -246 -291 l-54 -96 0
-198 0 -199 642 0 642 0 41 38 40 37 -34 -38 -35 -37 632 0 632 0 0 173 c-1
256 -11 344 -53 430 -49 103 -118 192 -169 218 -23 12 -105 66 -182 120 -121
86 -152 103 -235 129 -53 17 -102 33 -108 35 -16 5 -5 35 12 35 21 0 33 22 64
111 35 100 57 280 39 313 -7 12 -13 90 -15 186 -4 183 -15 240 -69 364 -41 93
-63 123 -87 118 -12 -2 -22 9 -36 40 -23 53 -95 122 -181 176 -137 85 -247
112 -453 111 l-142 0 -34 -35z m801 -499 c2 -3 3 -18 0 -34 l-4 -28 -24 22
c-13 12 -24 27 -24 34 0 11 42 16 52 6z m175 -557 c-3 -8 -6 -5 -6 6 -1 11 2
17 5 13 3 -3 4 -12 1 -19z m-48 -112 c2 -71 -21 -24 -24 50 l-3 69 13 -40 c7
-22 14 -58 14 -79z m-413 -161 c4 -8 1 -22 -6 -30 -17 -21 -4 -52 22 -51 14 1
24 -6 26 -16 3 -14 -3 -18 -25 -18 -16 0 -34 -5 -40 -11 -18 -18 -46 19 -38
50 5 22 11 55 14 84 2 14 42 7 47 -8z m-627 -387 c-1 -83 3 -129 16 -173 15
-51 17 -83 12 -221 -4 -89 -10 -169 -13 -178 -3 -9 -15 -16 -27 -16 -19 0 -20
3 -12 108 9 110 10 281 4 432 -4 78 5 160 17 160 2 0 4 -51 3 -112z m964 -13
c11 -90 51 -265 88 -376 21 -66 39 -122 39 -124 0 -3 -18 -5 -41 -5 -34 0 -42
4 -47 22 l-5 22 -8 -22 c-7 -19 -14 -21 -36 -16 -16 4 -33 11 -39 15 -6 5 -13
6 -16 3 -12 -12 -182 39 -207 62 -13 12 -13 16 1 31 8 10 21 34 27 55 7 20 18
38 24 41 24 9 130 190 178 305 24 59 34 55 42 -13z m-933 -23 c0 -63 19 -158
55 -282 12 -40 15 -81 12 -148 -2 -51 -6 -94 -8 -96 -2 -2 -15 -7 -28 -11 -22
-7 -23 -5 -17 21 3 16 9 81 12 144 6 104 4 124 -20 211 -27 99 -37 247 -16
234 6 -3 10 -36 10 -73z m35 -40 c11 -74 33 -169 66 -279 33 -111 36 -185 8
-191 -14 -3 -17 11 -21 100 -4 76 -13 129 -35 203 -31 103 -50 231 -33 220 5
-3 12 -27 15 -53z m73 -153 c27 -61 75 -280 64 -291 -5 -5 -18 27 -30 74 -12
46 -35 130 -51 188 -31 106 -43 197 -17 115 8 -22 23 -61 34 -86z m106 -145
c-11 27 7 17 48 -29 28 -31 35 -46 31 -67 -4 -23 -9 -26 -46 -24 l-41 2 -13
60 c-16 79 -16 80 7 59 20 -18 21 -18 14 -1z m426 -44 c-6 -11 -8 -26 -4 -32
4 -7 3 -8 -4 -4 -7 4 -12 1 -12 -9 0 -23 -45 -65 -70 -65 -19 0 -19 3 11 61
16 34 42 72 57 84 25 22 27 22 30 5 2 -11 -2 -28 -8 -40z m407 28 c-3 -8 -6
-5 -6 6 -1 11 2 17 5 13 3 -3 4 -12 1 -19z m37 -105 c4 -13 3 -23 -2 -23 -5 0
-12 13 -15 29 -18 89 -18 88 -4 51 8 -19 17 -45 21 -57z m-615 21 c-6 -7 -31
-23 -55 -35 -34 -18 -50 -20 -75 -13 -18 5 -34 15 -36 21 -6 18 42 27 78 14
37 -13 52 -5 26 13 -25 19 -22 22 28 18 38 -3 44 -7 34 -18z m141 -70 c0 -10
-104 -116 -125 -126 -11 -6 12 21 50 60 72 73 75 76 75 66z m-95 -34 c-10 -11
-21 -18 -23 -15 -3 3 3 12 14 20 27 20 30 18 9 -5z m25 -93 c0 -1 -24 -25 -52
-52 l-53 -50 50 53 c46 48 55 57 55 49z"/>
<path d="M1715 595 c35 -153 74 -283 75 -249 0 17 -69 266 -76 273 -3 3 -3 -8
1 -24z"/>
</g>
</svg>
