<?xml version="1.0" encoding="utf-8"?>
<!-- Generator: Adobe Illustrator 21.0.0, SVG Export Plug-In . SVG Version: 6.00 Build 0)  -->
<svg version="1.1" id="Layer_1" xmlns="http://www.w3.org/2000/svg" xmlns:xlink="http://www.w3.org/1999/xlink" x="0px" y="0px"
	 viewBox="0 0 111.9 114.4" style="enable-background:new 0 0 111.9 114.4;" xml:space="preserve">
<style type="text/css">
	.st0{fill:#ff0000;stroke:#00ff00;}
</style>
<g>
	<polygon class="st0" points="35.7,73.5 3.4,53.8 38.6,40.1 47.4,3.3 71.3,32.6 109,29.5 88.5,61.3 103.1,96.2 66.5,86.6 
		37.8,111.2 	"/>
	<path d="M48.1,6.6l21.5,26.3l1,1.2l1.6-0.1l33.9-2.8L87.7,59.8l-0.9,1.3l0.6,1.5L100.5,94l-32.9-8.7l-1.5-0.4l-1.2,1l-25.8,22.2
		l-1.9-33.9l-0.1-1.6l-1.3-0.8l-29-17.7l31.7-12.3l1.5-0.6l0.4-1.5L48.1,6.6 M46.6,0l-9.2,39L0,53.5l34.2,20.8l2.3,40l30.4-26.1
		l38.8,10.2l-15.5-37l21.7-33.7L71.9,31L46.6,0L46.6,0z"/>
</g>
</svg>
